<?xml version="1.0" encoding="UTF-8" standalone="no"?>
<svg
   xmlns:dc="http://purl.org/dc/elements/1.1/"
   xmlns:cc="http://creativecommons.org/ns#"
   xmlns:rdf="http://www.w3.org/1999/02/22-rdf-syntax-ns#"
   xmlns:svg="http://www.w3.org/2000/svg"
   xmlns="http://www.w3.org/2000/svg"
   xmlns:sodipodi="http://sodipodi.sourceforge.net/DTD/sodipodi-0.dtd"
   xmlns:inkscape="http://www.inkscape.org/namespaces/inkscape"
   width="92.601013mm"
   height="92.604172mm"
   viewBox="0 0 92.601013 92.604172"
   version="1.1"
   id="svg72338"
   inkscape:version="1.0.1 (3bc2e813f5, 2020-09-07)"
   sodipodi:docname="Lillestrom SK logo.svg">
  <defs
     id="defs72332" />
  <sodipodi:namedview
     id="base"
     pagecolor="#ffffff"
     bordercolor="#666666"
     borderopacity="1.0"
     inkscape:pageopacity="0.0"
     inkscape:pageshadow="2"
     inkscape:zoom="0.35"
     inkscape:cx="173.7314"
     inkscape:cy="96.591143"
     inkscape:document-units="mm"
     inkscape:current-layer="layer1"
     inkscape:document-rotation="0"
     showgrid="false"
     inkscape:pagecheckerboard="true"
     inkscape:window-width="1366"
     inkscape:window-height="705"
     inkscape:window-x="-8"
     inkscape:window-y="-8"
     inkscape:window-maximized="1" />
  <metadata
     id="metadata72335">
    <rdf:RDF>
      <cc:Work
         rdf:about="">
        <dc:format>image/svg+xml</dc:format>
        <dc:type
           rdf:resource="http://purl.org/dc/dcmitype/StillImage" />
        <dc:title></dc:title>
      </cc:Work>
    </rdf:RDF>
  </metadata>
  <g
     inkscape:label="Layer 1"
     inkscape:groupmode="layer"
     id="layer1"
     transform="translate(-59.8669,-122.61026)">
    <path
       style="clip-rule:nonzero;fill:#110c0a;fill-opacity:1;fill-rule:nonzero;stroke:none;stroke-width:0.806046"
       d="m 152.46791,168.91077 c 0,25.56997 -20.73052,46.30366 -46.30049,46.30366 -25.569981,0 -46.30052,-20.73369 -46.30052,-46.30366 0,-25.56998 20.730539,-46.30051 46.30052,-46.30051 25.56997,0 46.30049,20.73053 46.30049,46.30051"
       id="path70705" />
    <path
       style="fill:#fddc02;fill-opacity:1;fill-rule:nonzero;stroke:none;stroke-width:0.806046"
       d="m 71.148423,153.65254 c -0.261337,0.54787 -1.420031,2.50944 1.079976,2.50944 h 68.444781 c 2.07495,0 1.25945,-1.52393 1.07683,-1.93639 -2.63225,-5.99184 -12.37724,-23.79101 -35.2205,-23.79101 -22.156866,0 -32.289144,16.74439 -35.381087,23.21796"
       id="path70709" />
    <path
       style="fill:#fddc02;fill-opacity:1;fill-rule:nonzero;stroke:none;stroke-width:0.806046"
       d="m 71.148423,184.05251 c -0.261337,-0.55102 -1.420031,-2.53464 1.079976,-2.53464 h 68.444781 c 2.07495,0 1.25945,1.53967 1.07683,1.95844 -2.63225,6.04535 -12.37724,24.0051 -35.2205,24.0051 -22.156866,0 -32.289144,-16.89553 -35.381087,-23.4289"
       id="path70711" />
    <path
       style="fill:#fddc02;fill-opacity:1;fill-rule:nonzero;stroke:#fddc02;stroke-width:0.270027;stroke-linecap:butt;stroke-linejoin:miter;stroke-miterlimit:4;stroke-opacity:1"
       d="m 74.180542,163.27473 c 0,0 -0.01577,-1.54283 1.785275,-1.54283 h 3.073056 v 11.62157 h 6.12407 c 0,0 1.404288,0 1.404288,1.19964 v 1.66247 H 74.180542 Z m 0,0"
       id="path70713" />
    <path
       style="fill:#fddc02;fill-opacity:1;fill-rule:nonzero;stroke:#fddc02;stroke-width:0.270027;stroke-linecap:butt;stroke-linejoin:miter;stroke-miterlimit:4;stroke-opacity:1"
       d="m 122.81734,174.6507 v -12.9188 h 3.05731 c 0,0 1.80417,-0.002 1.80417,1.54283 v 4.37029 h 0.0535 l 5.48805,-5.91312 h 5.8533 l -0.40618,0.40302 -6.33818,6.34134 6.84511,7.28906 0.42191,0.45026 h -6.19334 l -5.67067,-6.58063 h -0.0535 v 6.58063 h -4.86148 z m 0,0"
       id="path70715" />
    <path
       style="fill:#fddc02;fill-opacity:1;fill-rule:nonzero;stroke:none;stroke-width:0.806046"
       d="m 102.25052,165.69288 c 0,-1.26261 2.03717,-1.34761 3.26513,-1.34761 1.36335,0 2.70782,0.19513 3.94837,0.63602 l 0.0882,0.0315 c 0,0 0.0755,-0.63288 0.16373,-1.43263 0.17317,-1.54283 -1.4893,-1.88917 -1.62784,-1.90806 -0.90365,-0.1227 -1.90176,-0.18896 -2.91247,-0.18896 -3.6587,0 -7.943986,0.95404 -7.943986,4.43957 0,5.27078 8.624086,3.57053 8.624086,6.26575 0,1.16185 -1.46412,1.41058 -3.00694,1.41058 -2.01197,0 -3.762605,-0.41562 -5.015761,-0.95402 0,0 -0.02193,0.0976 -0.217245,1.64357 -0.192065,1.54913 1.448373,1.88288 1.57746,1.90178 1.227966,0.18256 2.534646,0.27393 3.655556,0.27393 4.05228,0 8.02584,-1.01701 8.02584,-4.77332 0,-5.22986 -8.62408,-3.6524 -8.62408,-5.99813"
       id="path70717" />
    <path
       style="fill:none;stroke:#fddc02;stroke-width:0.270027;stroke-linecap:butt;stroke-linejoin:miter;stroke-miterlimit:4;stroke-opacity:1"
       d="m 102.25052,165.69288 c 0,-1.26261 2.03717,-1.34761 3.26513,-1.34761 1.36335,0 2.70782,0.19513 3.94837,0.63602 l 0.0882,0.0315 c 0,0 0.0755,-0.63288 0.16373,-1.43263 0.17317,-1.54283 -1.4893,-1.88917 -1.62784,-1.90806 -0.90365,-0.1227 -1.90176,-0.18896 -2.91247,-0.18896 -3.6587,0 -7.943986,0.95404 -7.943986,4.43957 0,5.27078 8.624086,3.57053 8.624086,6.26575 0,1.16185 -1.46412,1.41058 -3.00694,1.41058 -2.01197,0 -3.762605,-0.41562 -5.015761,-0.95402 0,0 -0.02193,0.0976 -0.217245,1.64357 -0.192065,1.54913 1.448373,1.88288 1.57746,1.90178 1.227966,0.18256 2.534646,0.27393 3.655556,0.27393 4.05228,0 8.02584,-1.01701 8.02584,-4.77332 0,-5.22986 -8.62408,-3.6524 -8.62408,-5.99813 z m 0,0"
       id="path70719" />
  </g>
</svg>
