<?xml version="1.0" encoding="UTF-8" standalone="no"?>
<!-- Created with Inkscape (http://www.inkscape.org/) -->

<svg
   xmlns:dc="http://purl.org/dc/elements/1.1/"
   xmlns:cc="http://creativecommons.org/ns#"
   xmlns:rdf="http://www.w3.org/1999/02/22-rdf-syntax-ns#"
   xmlns:svg="http://www.w3.org/2000/svg"
   xmlns="http://www.w3.org/2000/svg"
   xmlns:sodipodi="http://sodipodi.sourceforge.net/DTD/sodipodi-0.dtd"
   xmlns:inkscape="http://www.inkscape.org/namespaces/inkscape"
   width="79.341362mm"
   height="79.343109mm"
   viewBox="0 0 79.341362 79.343109"
   version="1.1"
   id="svg52435"
   inkscape:version="0.92.3 (2405546, 2018-03-11)"
   sodipodi:docname="Paris Saint-Germain F.C..svg">
  <defs
     id="defs52429" />
  <sodipodi:namedview
     id="base"
     pagecolor="#ffffff"
     bordercolor="#666666"
     borderopacity="1.0"
     inkscape:pageopacity="0.0"
     inkscape:pageshadow="2"
     inkscape:zoom="0.98994949"
     inkscape:cx="233.0288"
     inkscape:cy="191.01795"
     inkscape:document-units="mm"
     inkscape:current-layer="layer1"
     showgrid="false"
     fit-margin-top="0"
     fit-margin-left="0"
     fit-margin-right="0"
     fit-margin-bottom="0"
     inkscape:window-width="1920"
     inkscape:window-height="1001"
     inkscape:window-x="-9"
     inkscape:window-y="-9"
     inkscape:window-maximized="1" />
  <metadata
     id="metadata52432">
    <rdf:RDF>
      <cc:Work
         rdf:about="">
        <dc:format>image/svg+xml</dc:format>
        <dc:type
           rdf:resource="http://purl.org/dc/dcmitype/StillImage" />
        <dc:title></dc:title>
      </cc:Work>
    </rdf:RDF>
  </metadata>
  <g
     inkscape:label="Layer 1"
     inkscape:groupmode="layer"
     id="layer1"
     transform="translate(105.43854,-55.489158)">
    <g
       id="g53273">
      <path
         d="m -65.76786,55.489158 c -21.875992,0 -39.67068,17.796439 -39.67068,39.670681 0,21.874241 17.794688,39.672431 39.67068,39.672431 21.874243,0 39.670681,-17.79819 39.670681,-39.672431 0,-21.874242 -17.796438,-39.670681 -39.670681,-39.670681"
         style="fill:#004170;fill-opacity:1;fill-rule:nonzero;stroke:none;stroke-width:1.74937963"
         id="path49486"
         inkscape:connector-curvature="0" />
      <path
         d="m -65.82279,58.336624 c -9.838511,0 -19.08923,3.831141 -26.046513,10.788424 -6.957283,6.957283 -10.788427,16.208002 -10.788427,26.046513 0,9.838509 3.831144,19.087479 10.788427,26.046509 6.957283,6.95729 16.208002,10.78843 26.046513,10.78843 9.838511,0 19.08923,-3.83114 26.046513,-10.78843 6.957283,-6.95903 10.788424,-16.208 10.788424,-26.046509 0,-9.838511 -3.831141,-19.08923 -10.788424,-26.046513 C -46.73356,62.167765 -55.984279,58.336624 -65.82279,58.336624 m 0,1.458983 c 19.538821,0 35.375954,15.838882 35.375954,35.375954 0,19.537069 -15.837133,35.375959 -35.375954,35.375959 -19.537071,0 -35.37595,-15.83889 -35.37595,-35.375959 0,-19.537072 15.838879,-35.375954 35.37595,-35.375954"
         style="fill:#ffffff;fill-opacity:1;fill-rule:nonzero;stroke:none;stroke-width:1.74937963"
         id="path49490"
         inkscape:connector-curvature="0" />
      <path
         d="m -76.429978,69.685374 0.155695,-3.895868 2.56634,2.942456 c -0.928921,0.271154 -1.836849,0.589541 -2.722035,0.953412 m 0.545806,-5.902407 c -0.64727,0.208176 -1.287543,0.433846 -1.91732,0.680509 L -78.482,74.793562 c 0.612283,-0.374367 1.242059,-0.722493 1.88758,-1.04263 l 0.09797,-2.407146 c 1.245558,-0.549305 2.543598,-1.004144 3.883622,-1.355769 l 1.586688,1.821104 c 0.698002,-0.150447 1.406501,-0.272903 2.123746,-0.360372 z m 28.003369,6.380512 c 1.364516,-0.320136 3.871377,2.17098 4.350707,3.857382 0.398859,-0.304392 1.285794,-0.955161 1.285794,-0.955161 -1.060124,-3.015931 -5.279628,-6.03361 -7.284417,-4.144281 -1.189578,1.123102 -0.514317,2.853239 0.523065,3.946601 l 1.007643,1.060124 c 1.028635,1.082866 1.926067,2.160484 1.100359,2.840992 -0.879938,0.727742 -3.341315,-1.095111 -4.82129,-4.224751 l -1.32428,0.998895 c 0.316638,0.823958 1.030384,2.017035 1.989044,3.026427 1.086365,1.144094 2.270695,1.88933 3.330819,2.097506 0.832705,0.164442 1.66366,0.04024 2.211216,-0.468833 1.366265,-1.266551 0.869442,-3.113896 -1.277047,-5.374095 l -0.890434,-0.935918 c -0.9884,-1.040881 -0.584293,-1.63392 -0.201179,-1.724888 m -40.016534,2.647161 2.48237,-2.723784 c 0.558052,-0.612283 1.511464,-0.657767 2.125496,-0.09797 0.612283,0.558052 0.657767,1.511464 0.09797,2.123747 l -2.48237,2.725533 z m 5.477308,4.992729 -2.064268,-1.880583 2.557593,-2.816501 c 1.158089,-1.2683 1.158089,-3.311575 -0.111961,-4.467915 -1.270049,-1.15809 -3.337816,-0.998896 -4.494156,0.271153 l -3.797903,4.177519 6.614404,6.026613 c 0.414603,-0.454839 0.850199,-0.888685 1.296291,-1.310286 m 16.476357,-13.920337 h 3.386799 c 0.829206,0 1.504466,0.675261 1.504466,1.504466 0,0.829206 -0.67526,1.504467 -1.504466,1.504467 h -3.386799 z m 0,7.377134 v -2.757022 h 2.307432 l 1.990794,3.147133 c 0.78897,0.14345 1.563945,0.323636 2.323176,0.542308 l -2.386154,-3.804901 c 1.368015,-0.36562 2.496365,-1.570942 2.496365,-3.000186 0,-1.71789 -1.626923,-3.117394 -3.344814,-3.117394 h -5.228896 v 9.067034 c 0.607035,-0.04723 1.219318,-0.07697 1.840348,-0.07697 z m 10.087272,2.225385 3.500509,-8.419764 c -0.573797,-0.257159 -1.15634,-0.496824 -1.745881,-0.720744 l -3.498759,8.414515 c 0.593039,0.218673 1.173833,0.461837 1.744131,0.725993"
         style="fill:#ffffff;fill-opacity:1;fill-rule:nonzero;stroke:none;stroke-width:1.74937963"
         id="path49510"
         inkscape:connector-curvature="0" />
      <path
         d="m -58.772266,94.909853 c -3.168126,-5.557779 -5.041712,-12.119702 -5.181662,-19.79423 -0.607035,-0.05423 -1.221067,-0.08747 -1.842097,-0.08747 -0.626278,0 -1.243809,0.03324 -1.856092,0.08922 -0.13995,7.672779 -2.013536,14.234702 -5.181662,19.792481 z m 0.464286,0.790195 h -14.990434 c -2.484119,4.121538 -5.692481,7.678032 -9.443151,10.704452 1.621675,2.46663 3.764665,4.55889 6.275025,6.11758 -0.09272,-0.53531 -0.143449,-1.08286 -0.143449,-1.64267 0,-5.58401 4.840533,-10.11141 10.812915,-10.11141 5.972382,0 10.812915,4.5274 10.812915,10.11141 0,0.55981 -0.05073,1.10736 -0.143449,1.64267 2.506861,-1.55695 4.649851,-3.6457 6.269777,-6.11058 -3.754169,-3.02818 -6.964281,-6.586415 -9.450149,-10.711452"
         style="fill:#e30613;fill-opacity:1;fill-rule:nonzero;stroke:none;stroke-width:1.74937963"
         id="path49522"
         inkscape:connector-curvature="0" />
      <path
         d="m -62.935264,75.234056 c 9.836761,1.390757 17.402828,9.84026 17.402828,20.060136 0,3.273089 -0.780223,6.362498 -2.158734,9.100268 -8.928834,-6.69837 -14.35366,-16.138022 -15.244094,-29.160404 m 7.807481,37.288024 c 0.09272,-0.53531 0.143449,-1.08286 0.143449,-1.64267 0,-5.58401 -4.840533,-10.11141 -10.812915,-10.11141 -5.972382,0 -10.812915,4.5274 -10.812915,10.11141 0,0.55981 0.05073,1.10736 0.145198,1.64267 -2.512109,-1.5587 -4.655099,-3.65095 -6.275024,-6.11758 3.74892,-3.02642 6.957282,-6.582914 9.441401,-10.704452 h 14.990434 c 2.485868,4.125037 5.69598,7.683272 9.450149,10.711452 -1.619926,2.46488 -3.761166,4.55363 -6.269777,6.11058 m -3.397295,1.6864 c -2.258449,0.86945 -4.707581,1.35053 -7.272171,1.35053 -2.562841,0 -5.011973,-0.48108 -7.270422,-1.35053 -0.823957,-1.2508 -1.301538,-2.72728 -1.301538,-4.31222 0,-4.4959 3.838139,-8.14161 8.57196,-8.14161 4.735571,0 8.573709,3.64571 8.573709,8.14161 0,1.58494 -0.47758,3.06142 -1.301538,4.31222 M -86.062062,95.294192 c 0,-10.221625 7.569565,-18.671129 17.408076,-20.060136 -0.890434,13.022382 -6.31701,22.463783 -15.247593,29.162154 -1.378511,-2.73778 -2.160483,-5.82718 -2.160483,-9.102018 m 20.264813,-20.264813 c 0.622779,0 1.235062,0.03149 1.843846,0.08747 0.138201,7.672778 2.013536,14.234701 5.181662,19.79248 h -14.063262 c 3.169876,-5.557779 5.043461,-12.119702 5.183412,-19.79248 0.610533,-0.05423 1.229813,-0.08747 1.854342,-0.08747 m 0,-1.458983 c -11.978002,0 -21.722047,9.745794 -21.722047,21.723796 0,11.977998 9.744045,21.722048 21.722047,21.722048 11.978002,0 21.723796,-9.74405 21.723796,-21.722048 0,-11.978002 -9.745794,-21.723796 -21.723796,-21.723796"
         style="fill:#ffffff;fill-opacity:1;fill-rule:nonzero;stroke:none;stroke-width:1.74937963"
         id="path49526"
         inkscape:connector-curvature="0" />
      <path
         d="m -62.49617,108.42993 c -1.049628,0 -2.05902,0.84495 -2.643313,2.3879 -0.0105,0.021 -0.01749,0.0472 -0.01749,0.0735 -0.0018,0.098 0.07697,0.17843 0.174938,0.18018 0.06997,0 0.129454,-0.0385 0.160943,-0.0962 v 0 c 0,-0.004 0.0017,-0.005 0.0017,-0.009 0.0017,0 0.0017,-0.002 0.0017,-0.004 0.447841,-0.96741 1.280546,-1.42224 1.752879,-1.42224 0.265905,0 0.481079,0.21517 0.481079,0.48108 0,0.2659 -0.215174,0.48107 -0.481079,0.48107 -0.02449,0 -0.06298,-0.003 -0.08572,-0.007 -0.02099,-0.003 -0.07173,-0.0157 -0.09797,0.042 -0.01924,0.0472 -0.05948,0.27815 0.146948,0.51432 0.120707,0.13645 0.369119,0.25016 0.605285,0.25016 0.794218,0 1.436241,-0.64377 1.436241,-1.43624 0,-0.79422 -0.642023,-1.43624 -1.436241,-1.43624 m -4.004405,2.38792 c -0.586042,-1.54295 -1.595434,-2.3879 -2.643313,-2.3879 -0.794218,0 -1.43624,0.64377 -1.43624,1.43624 0,0.79247 0.642022,1.43624 1.43624,1.43624 0.236167,0 0.484579,-0.11371 0.605286,-0.25016 0.206427,-0.23617 0.166191,-0.46709 0.145198,-0.51257 -0.02449,-0.0595 -0.07522,-0.0472 -0.09622,-0.0437 -0.02274,0.004 -0.06123,0.007 -0.08572,0.007 -0.265906,0 -0.48108,-0.21517 -0.48108,-0.48108 0,-0.26415 0.215174,-0.47933 0.48108,-0.47933 0.470583,0 1.305037,0.45309 1.751129,1.42225 0,0.002 0.0017,0.002 0.0017,0.004 0.0017,0.002 0.0035,0.004 0.0035,0.007 0.02974,0.0577 0.09097,0.098 0.159193,0.0962 0.09972,-0.002 0.178437,-0.0822 0.176688,-0.18019 0,-0.0262 -0.007,-0.0507 -0.01749,-0.0735 m 2.114349,-3.05387 c 0,-0.82746 -1.082866,-3.41129 -1.41,-3.41129 -0.02449,0 -0.05073,0.0122 -0.08047,0.0367 -0.39536,0.31838 -1.331278,2.60482 -1.331278,3.37455 0,0.61753 1.247307,2.24445 1.247307,3.12964 v 0 c 0,0.091 0.07347,0.16444 0.164442,0.16444 0.08922,0 0.164442,-0.0735 0.164442,-0.16444 0,-0.002 -0.0018,-0.004 -0.0018,-0.005 0.0052,-0.88518 1.247308,-2.50861 1.247308,-3.12439 m -0.690081,4.54818 c -0.236166,-0.1452 -0.416352,-0.37612 -0.481079,-0.65252 -0.02974,-0.10496 -0.124206,-0.18368 -0.239665,-0.18368 -0.11371,0 -0.209926,0.0787 -0.239665,0.18368 -0.06473,0.2764 -0.244914,0.50732 -0.48108,0.65252 -0.04373,0.0262 -0.04723,0.0455 -0.02974,0.0787 0.143449,0.28515 0.386613,0.63853 0.684007,0.87819 0.04198,0.0332 0.05773,0.035 0.06648,0.035 0.0105,0 0.02449,-0.002 0.06648,-0.035 0.299144,-0.23966 0.540558,-0.59304 0.684007,-0.87819 0.01749,-0.0332 0.014,-0.0525 -0.02974,-0.0787"
         style="fill:#ceab5d;fill-opacity:1;fill-rule:nonzero;stroke:none;stroke-width:1.74937963"
         id="path49542"
         inkscape:connector-curvature="0" />
      <path
         d="m -70.246621,123.71024 -1.210571,-0.26591 0.110211,-0.48982 1.208822,0.2729 z m -14.932879,-9.7318 c -0.278151,-1.03738 -1.329528,-2.05377 -2.123747,-2.05377 -0.178437,0 -0.335881,0.0507 -0.472332,0.15219 -0.160943,0.11896 -0.25541,0.27816 -0.2834,0.47059 -0.04548,0.30439 0.07697,0.6875 0.328884,1.02164 l 0.362121,0.48457 c 0.279901,0.37437 0.551055,0.76623 0.493325,1.07587 -0.02099,0.12421 -0.09097,0.22392 -0.208176,0.29915 -0.06298,0.042 -0.136452,0.0612 -0.218672,0.0612 -0.491576,0 -1.322531,-0.87469 -1.731886,-2.13074 l -0.0087,-0.0227 -0.356874,0.33588 -0.007,0.007 0.0017,0.007 c 0.08047,0.31489 0.293896,0.82221 0.652519,1.30329 0.377866,0.50382 0.808213,0.8537 1.21232,0.98315 0.131203,0.042 0.258908,0.063 0.381365,0.063 0.176687,0 0.334131,-0.0455 0.453089,-0.1312 0.195931,-0.1452 0.313139,-0.32714 0.344628,-0.54406 0.06123,-0.40061 -0.152196,-0.93067 -0.631526,-1.57094 l -0.320137,-0.4286 c -0.255409,-0.34113 -0.244913,-0.5633 -0.190682,-0.68926 0.04898,-0.11021 0.150447,-0.18718 0.265906,-0.20118 0.01749,-0.002 0.03674,-0.002 0.05598,-0.002 0.582543,0 1.40825,0.9674 1.623424,1.71789 l 0.0052,0.0175 0.01749,-0.009 c 0.120707,-0.07 0.260658,-0.15044 0.348126,-0.19943 l 0.0105,-0.007 z m 32.918425,4.3801 -0.435596,0.22217 -0.07347,2.4089 -1.992544,-1.35577 -0.435595,0.22392 1.483474,3.05616 0.444342,-0.19768 -1.030385,-2.17272 0.0087,-0.005 1.97505,1.33827 0.07522,-2.38265 0.0087,-0.005 1.15634,2.11325 0.42335,-0.23967 z m 5.755109,-4.56623 3.27134,0.22567 0.0052,-0.007 -1.919069,-1.72664 0.327134,-0.36387 2.526104,2.27245 -0.293896,0.36387 -3.304578,-0.22567 -0.007,0.007 1.943561,1.74938 -0.342878,0.34987 -2.533102,-2.28119 z m -1.347197,1.3311 2.319677,2.49636 -0.36562,0.32364 -2.31268,-2.48762 z m -2.002865,2.34767 0.250161,1.27355 0.871191,-0.61928 z m 3.063164,1.22806 -0.426849,0.33938 -1.051377,-0.64377 -1.236811,0.87994 0.239665,1.23156 -0.435596,0.27815 -0.717246,-3.6562 0.442593,-0.31314 z m -11.84295,2.86146 0.288648,0.95866 1.448486,-0.4356 c 0.351625,-0.10671 0.496824,-0.34812 0.400608,-0.66476 -0.110211,-0.36912 -0.419851,-0.37612 -0.689256,-0.2939 z m 1.308536,-0.90443 c 0.519566,-0.15744 1.09861,-0.042 1.29804,0.62103 0.213424,0.70675 -0.192432,1.07062 -0.460087,1.17558 l 1.061873,1.1441 -0.514317,0.18368 -1.054876,-1.15809 -1.208822,0.36387 0.407606,1.36627 -0.467085,0.13295 -0.979652,-3.25209 z m -3.087305,0.85667 0.06997,0.48458 -2.270695,0.32538 0.127705,0.88344 1.144094,-0.16444 0.06998,0.48458 -1.144095,0.16444 0.146948,1.02688 2.354665,-0.33763 0.06823,0.48283 -2.837494,0.40761 -0.482828,-3.36406 z m -5.293098,2.05448 1.556948,0.0245 -0.01399,0.90268 c -0.0105,0.61053 -0.687506,1.00764 -1.539454,0.99365 -0.904429,-0.0157 -1.840348,-0.65077 -1.821104,-1.80536 0.01399,-0.96916 0.801215,-1.75288 1.88933,-1.73539 0.809962,0.0122 1.229813,0.44435 1.423995,0.63853 l -0.344628,0.34288 c -0.164442,-0.16619 -0.421601,-0.48108 -1.037382,-0.49158 -0.90268,-0.0157 -1.432742,0.56505 -1.443238,1.2753 -0.01225,0.66651 0.503821,1.2718 1.364516,1.28754 0.589541,0.009 1.01464,-0.25716 1.018139,-0.5458 l 0.007,-0.37962 -1.068871,-0.0175 z m -7.467577,-2.53713 -0.160943,0.46184 -1.124851,-0.39186 -0.967407,2.77276 -0.461836,-0.16094 0.965657,-2.77277 -1.124851,-0.39186 0.160943,-0.46183 z m -5.874591,-2.51263 0.587792,3.22411 0.0087,0.004 1.200075,-2.28469 0.433846,0.22741 -1.57969,3.01069 -0.428598,-0.19418 -0.593039,-3.2626 -0.007,-0.004 -1.221067,2.31968 -0.419851,-0.24491 1.586687,-3.02293 z m -1.491346,-0.94922 -1.903325,2.88648 -0.409355,-0.26766 1.903325,-2.88648 z m -2.916391,-1.43326 -1.172084,0.5563 0.813461,0.69101 z m -0.439094,3.30458 -0.435596,-0.32714 0.369119,-1.21407 -1.15634,-0.9814 -1.149342,0.54581 -0.390112,-0.35687 3.393797,-1.60244 0.414603,0.35163 z"
         style="fill:#ffffff;fill-opacity:1;fill-rule:nonzero;stroke:none;stroke-width:1.74937963"
         id="path49594"
         inkscape:connector-curvature="0" />
    </g>
  </g>
</svg>
